<mxfile host="app.diagrams.net" modified="2023-03-09T03:26:46.872Z" agent="5.0 (Windows)" etag="PF2gSwCnCQQTJnSUQwWd" version="21.0.4" type="github">
  <diagram name="Page-1" id="bHR2FnbiKH42XE7eoHGA">
    <mxGraphModel dx="1314" dy="2190" grid="1" gridSize="10" guides="1" tooltips="1" connect="1" arrows="1" fold="1" page="1" pageScale="1" pageWidth="850" pageHeight="1100" math="0" shadow="0">
      <root>
        <mxCell id="0" />
        <mxCell id="1" parent="0" />
        <mxCell id="GZ-7p6NIEpDdpcSqMRWB-106" value="" style="rounded=1;whiteSpace=wrap;html=1;" vertex="1" parent="1">
          <mxGeometry x="470" y="110" width="100" height="30" as="geometry" />
        </mxCell>
        <mxCell id="GZ-7p6NIEpDdpcSqMRWB-2" value="Actor" style="shape=umlActor;verticalLabelPosition=bottom;verticalAlign=top;html=1;outlineConnect=0;" vertex="1" parent="1">
          <mxGeometry x="60" y="120" width="20" height="50" as="geometry" />
        </mxCell>
        <mxCell id="GZ-7p6NIEpDdpcSqMRWB-6" value="Actor" style="shape=umlActor;verticalLabelPosition=bottom;verticalAlign=top;html=1;outlineConnect=0;" vertex="1" parent="1">
          <mxGeometry x="60" y="430" width="20" height="50" as="geometry" />
        </mxCell>
        <mxCell id="GZ-7p6NIEpDdpcSqMRWB-12" value="" style="endArrow=none;html=1;rounded=0;" edge="1" parent="1">
          <mxGeometry width="50" height="50" relative="1" as="geometry">
            <mxPoint x="120" y="1108" as="sourcePoint" />
            <mxPoint x="120" as="targetPoint" />
          </mxGeometry>
        </mxCell>
        <mxCell id="GZ-7p6NIEpDdpcSqMRWB-14" value="" style="rounded=1;whiteSpace=wrap;html=1;" vertex="1" parent="1">
          <mxGeometry x="190" y="50" width="100" height="30" as="geometry" />
        </mxCell>
        <mxCell id="GZ-7p6NIEpDdpcSqMRWB-15" value="" style="rounded=1;whiteSpace=wrap;html=1;" vertex="1" parent="1">
          <mxGeometry x="190" y="90" width="100" height="30" as="geometry" />
        </mxCell>
        <mxCell id="GZ-7p6NIEpDdpcSqMRWB-16" value="" style="rounded=1;whiteSpace=wrap;html=1;" vertex="1" parent="1">
          <mxGeometry x="190" y="130" width="100" height="30" as="geometry" />
        </mxCell>
        <mxCell id="GZ-7p6NIEpDdpcSqMRWB-17" value="" style="rounded=1;whiteSpace=wrap;html=1;" vertex="1" parent="1">
          <mxGeometry x="190" y="170" width="100" height="30" as="geometry" />
        </mxCell>
        <mxCell id="GZ-7p6NIEpDdpcSqMRWB-19" value="" style="rounded=1;whiteSpace=wrap;html=1;" vertex="1" parent="1">
          <mxGeometry x="190" y="360" width="100" height="30" as="geometry" />
        </mxCell>
        <mxCell id="GZ-7p6NIEpDdpcSqMRWB-20" value="" style="rounded=1;whiteSpace=wrap;html=1;" vertex="1" parent="1">
          <mxGeometry x="190" y="320" width="100" height="30" as="geometry" />
        </mxCell>
        <mxCell id="GZ-7p6NIEpDdpcSqMRWB-21" value="" style="rounded=1;whiteSpace=wrap;html=1;" vertex="1" parent="1">
          <mxGeometry x="190" y="280" width="100" height="30" as="geometry" />
        </mxCell>
        <mxCell id="GZ-7p6NIEpDdpcSqMRWB-22" value="" style="rounded=1;whiteSpace=wrap;html=1;" vertex="1" parent="1">
          <mxGeometry x="190" y="240" width="100" height="30" as="geometry" />
        </mxCell>
        <mxCell id="GZ-7p6NIEpDdpcSqMRWB-24" value="" style="rounded=1;whiteSpace=wrap;html=1;" vertex="1" parent="1">
          <mxGeometry x="190" y="470" width="100" height="30" as="geometry" />
        </mxCell>
        <mxCell id="GZ-7p6NIEpDdpcSqMRWB-25" value="" style="rounded=1;whiteSpace=wrap;html=1;" vertex="1" parent="1">
          <mxGeometry x="190" y="550" width="100" height="30" as="geometry" />
        </mxCell>
        <mxCell id="GZ-7p6NIEpDdpcSqMRWB-26" value="" style="rounded=1;whiteSpace=wrap;html=1;" vertex="1" parent="1">
          <mxGeometry x="190" y="510" width="100" height="30" as="geometry" />
        </mxCell>
        <mxCell id="GZ-7p6NIEpDdpcSqMRWB-27" value="" style="rounded=1;whiteSpace=wrap;html=1;" vertex="1" parent="1">
          <mxGeometry x="190" y="430" width="100" height="30" as="geometry" />
        </mxCell>
        <mxCell id="GZ-7p6NIEpDdpcSqMRWB-44" value="" style="rounded=1;whiteSpace=wrap;html=1;" vertex="1" parent="1">
          <mxGeometry x="190" y="760" width="100" height="30" as="geometry" />
        </mxCell>
        <mxCell id="GZ-7p6NIEpDdpcSqMRWB-45" value="" style="rounded=1;whiteSpace=wrap;html=1;" vertex="1" parent="1">
          <mxGeometry x="190" y="920" width="100" height="30" as="geometry" />
        </mxCell>
        <mxCell id="GZ-7p6NIEpDdpcSqMRWB-46" value="" style="rounded=1;whiteSpace=wrap;html=1;" vertex="1" parent="1">
          <mxGeometry x="190" y="680" width="100" height="30" as="geometry" />
        </mxCell>
        <mxCell id="GZ-7p6NIEpDdpcSqMRWB-47" value="" style="rounded=1;whiteSpace=wrap;html=1;" vertex="1" parent="1">
          <mxGeometry x="190" y="640" width="100" height="30" as="geometry" />
        </mxCell>
        <mxCell id="GZ-7p6NIEpDdpcSqMRWB-48" value="" style="rounded=1;whiteSpace=wrap;html=1;" vertex="1" parent="1">
          <mxGeometry x="190" y="960" width="100" height="30" as="geometry" />
        </mxCell>
        <mxCell id="GZ-7p6NIEpDdpcSqMRWB-49" value="" style="rounded=1;whiteSpace=wrap;html=1;" vertex="1" parent="1">
          <mxGeometry x="190" y="720" width="100" height="30" as="geometry" />
        </mxCell>
        <mxCell id="GZ-7p6NIEpDdpcSqMRWB-50" value="" style="rounded=1;whiteSpace=wrap;html=1;" vertex="1" parent="1">
          <mxGeometry x="190" y="880" width="100" height="30" as="geometry" />
        </mxCell>
        <mxCell id="GZ-7p6NIEpDdpcSqMRWB-51" value="" style="rounded=1;whiteSpace=wrap;html=1;" vertex="1" parent="1">
          <mxGeometry x="190" y="840" width="100" height="30" as="geometry" />
        </mxCell>
        <mxCell id="GZ-7p6NIEpDdpcSqMRWB-57" value="" style="endArrow=classic;html=1;rounded=0;exitX=1;exitY=0.3333333333333333;exitDx=0;exitDy=0;exitPerimeter=0;entryX=0;entryY=0.5;entryDx=0;entryDy=0;" edge="1" parent="1" source="GZ-7p6NIEpDdpcSqMRWB-2" target="GZ-7p6NIEpDdpcSqMRWB-14">
          <mxGeometry width="50" height="50" relative="1" as="geometry">
            <mxPoint x="250" y="700" as="sourcePoint" />
            <mxPoint x="300" y="650" as="targetPoint" />
          </mxGeometry>
        </mxCell>
        <mxCell id="GZ-7p6NIEpDdpcSqMRWB-60" value="" style="endArrow=classic;html=1;rounded=0;exitX=1;exitY=0.3333333333333333;exitDx=0;exitDy=0;exitPerimeter=0;entryX=0;entryY=0.5;entryDx=0;entryDy=0;" edge="1" parent="1" source="GZ-7p6NIEpDdpcSqMRWB-2" target="GZ-7p6NIEpDdpcSqMRWB-15">
          <mxGeometry width="50" height="50" relative="1" as="geometry">
            <mxPoint x="90" y="147" as="sourcePoint" />
            <mxPoint x="200" y="75" as="targetPoint" />
          </mxGeometry>
        </mxCell>
        <mxCell id="GZ-7p6NIEpDdpcSqMRWB-61" value="" style="endArrow=classic;html=1;rounded=0;exitX=1;exitY=0.3333333333333333;exitDx=0;exitDy=0;exitPerimeter=0;entryX=0;entryY=0.5;entryDx=0;entryDy=0;" edge="1" parent="1" source="GZ-7p6NIEpDdpcSqMRWB-2" target="GZ-7p6NIEpDdpcSqMRWB-16">
          <mxGeometry width="50" height="50" relative="1" as="geometry">
            <mxPoint x="100" y="157" as="sourcePoint" />
            <mxPoint x="210" y="85" as="targetPoint" />
          </mxGeometry>
        </mxCell>
        <mxCell id="GZ-7p6NIEpDdpcSqMRWB-62" value="" style="endArrow=classic;html=1;rounded=0;exitX=1;exitY=0.3333333333333333;exitDx=0;exitDy=0;exitPerimeter=0;entryX=0;entryY=0.5;entryDx=0;entryDy=0;" edge="1" parent="1" source="GZ-7p6NIEpDdpcSqMRWB-2" target="GZ-7p6NIEpDdpcSqMRWB-17">
          <mxGeometry width="50" height="50" relative="1" as="geometry">
            <mxPoint x="110" y="167" as="sourcePoint" />
            <mxPoint x="220" y="95" as="targetPoint" />
          </mxGeometry>
        </mxCell>
        <mxCell id="GZ-7p6NIEpDdpcSqMRWB-63" value="" style="endArrow=classic;html=1;rounded=0;exitX=1;exitY=0.3333333333333333;exitDx=0;exitDy=0;exitPerimeter=0;entryX=0;entryY=0.5;entryDx=0;entryDy=0;" edge="1" parent="1" source="GZ-7p6NIEpDdpcSqMRWB-2" target="GZ-7p6NIEpDdpcSqMRWB-45">
          <mxGeometry width="50" height="50" relative="1" as="geometry">
            <mxPoint x="340" y="242" as="sourcePoint" />
            <mxPoint x="330" y="600" as="targetPoint" />
          </mxGeometry>
        </mxCell>
        <mxCell id="GZ-7p6NIEpDdpcSqMRWB-67" value="" style="endArrow=classic;html=1;rounded=0;exitX=1;exitY=0.3333333333333333;exitDx=0;exitDy=0;exitPerimeter=0;entryX=0;entryY=0.5;entryDx=0;entryDy=0;" edge="1" parent="1" source="GZ-7p6NIEpDdpcSqMRWB-2" target="GZ-7p6NIEpDdpcSqMRWB-47">
          <mxGeometry width="50" height="50" relative="1" as="geometry">
            <mxPoint x="350" y="122" as="sourcePoint" />
            <mxPoint x="460" y="50" as="targetPoint" />
          </mxGeometry>
        </mxCell>
        <mxCell id="GZ-7p6NIEpDdpcSqMRWB-71" value="" style="endArrow=classic;html=1;rounded=0;exitX=1;exitY=0.3333333333333333;exitDx=0;exitDy=0;exitPerimeter=0;entryX=0;entryY=0.5;entryDx=0;entryDy=0;" edge="1" parent="1" source="GZ-7p6NIEpDdpcSqMRWB-2" target="GZ-7p6NIEpDdpcSqMRWB-22">
          <mxGeometry width="50" height="50" relative="1" as="geometry">
            <mxPoint x="200" y="257" as="sourcePoint" />
            <mxPoint x="310" y="185" as="targetPoint" />
          </mxGeometry>
        </mxCell>
        <mxCell id="GZ-7p6NIEpDdpcSqMRWB-72" value="" style="endArrow=classic;html=1;rounded=0;exitX=1;exitY=0.3333333333333333;exitDx=0;exitDy=0;exitPerimeter=0;entryX=0;entryY=0.5;entryDx=0;entryDy=0;" edge="1" parent="1" source="GZ-7p6NIEpDdpcSqMRWB-2" target="GZ-7p6NIEpDdpcSqMRWB-21">
          <mxGeometry width="50" height="50" relative="1" as="geometry">
            <mxPoint x="210" y="267" as="sourcePoint" />
            <mxPoint x="320" y="195" as="targetPoint" />
          </mxGeometry>
        </mxCell>
        <mxCell id="GZ-7p6NIEpDdpcSqMRWB-73" value="" style="endArrow=classic;html=1;rounded=0;exitX=1;exitY=0.3333333333333333;exitDx=0;exitDy=0;exitPerimeter=0;entryX=0;entryY=0.5;entryDx=0;entryDy=0;" edge="1" parent="1" source="GZ-7p6NIEpDdpcSqMRWB-2" target="GZ-7p6NIEpDdpcSqMRWB-20">
          <mxGeometry width="50" height="50" relative="1" as="geometry">
            <mxPoint x="220" y="277" as="sourcePoint" />
            <mxPoint x="330" y="205" as="targetPoint" />
          </mxGeometry>
        </mxCell>
        <mxCell id="GZ-7p6NIEpDdpcSqMRWB-74" value="" style="endArrow=classic;html=1;rounded=0;exitX=1;exitY=0.3333333333333333;exitDx=0;exitDy=0;exitPerimeter=0;entryX=0;entryY=0.5;entryDx=0;entryDy=0;" edge="1" parent="1" source="GZ-7p6NIEpDdpcSqMRWB-2" target="GZ-7p6NIEpDdpcSqMRWB-19">
          <mxGeometry width="50" height="50" relative="1" as="geometry">
            <mxPoint x="230" y="287" as="sourcePoint" />
            <mxPoint x="340" y="215" as="targetPoint" />
          </mxGeometry>
        </mxCell>
        <mxCell id="GZ-7p6NIEpDdpcSqMRWB-75" value="" style="endArrow=classic;html=1;rounded=0;exitX=1;exitY=0.3333333333333333;exitDx=0;exitDy=0;exitPerimeter=0;entryX=0;entryY=0.5;entryDx=0;entryDy=0;" edge="1" parent="1" source="GZ-7p6NIEpDdpcSqMRWB-2" target="GZ-7p6NIEpDdpcSqMRWB-27">
          <mxGeometry width="50" height="50" relative="1" as="geometry">
            <mxPoint x="240" y="297" as="sourcePoint" />
            <mxPoint x="350" y="225" as="targetPoint" />
          </mxGeometry>
        </mxCell>
        <mxCell id="GZ-7p6NIEpDdpcSqMRWB-76" value="" style="endArrow=classic;html=1;rounded=0;exitX=1;exitY=0.3333333333333333;exitDx=0;exitDy=0;exitPerimeter=0;entryX=0;entryY=0.5;entryDx=0;entryDy=0;" edge="1" parent="1" source="GZ-7p6NIEpDdpcSqMRWB-2" target="GZ-7p6NIEpDdpcSqMRWB-24">
          <mxGeometry width="50" height="50" relative="1" as="geometry">
            <mxPoint x="250" y="307" as="sourcePoint" />
            <mxPoint x="360" y="235" as="targetPoint" />
          </mxGeometry>
        </mxCell>
        <mxCell id="GZ-7p6NIEpDdpcSqMRWB-77" value="" style="endArrow=classic;html=1;rounded=0;exitX=1;exitY=0.3333333333333333;exitDx=0;exitDy=0;exitPerimeter=0;entryX=0;entryY=0.5;entryDx=0;entryDy=0;" edge="1" parent="1" source="GZ-7p6NIEpDdpcSqMRWB-2" target="GZ-7p6NIEpDdpcSqMRWB-26">
          <mxGeometry width="50" height="50" relative="1" as="geometry">
            <mxPoint x="260" y="317" as="sourcePoint" />
            <mxPoint x="370" y="245" as="targetPoint" />
          </mxGeometry>
        </mxCell>
        <mxCell id="GZ-7p6NIEpDdpcSqMRWB-78" value="" style="endArrow=classic;html=1;rounded=0;entryX=0;entryY=0.5;entryDx=0;entryDy=0;exitX=1;exitY=0.3333333333333333;exitDx=0;exitDy=0;exitPerimeter=0;" edge="1" parent="1" source="GZ-7p6NIEpDdpcSqMRWB-2" target="GZ-7p6NIEpDdpcSqMRWB-25">
          <mxGeometry width="50" height="50" relative="1" as="geometry">
            <mxPoint x="370" y="400" as="sourcePoint" />
            <mxPoint x="380" y="255" as="targetPoint" />
          </mxGeometry>
        </mxCell>
        <mxCell id="GZ-7p6NIEpDdpcSqMRWB-87" value="" style="endArrow=classic;html=1;rounded=0;exitX=1;exitY=0.3333333333333333;exitDx=0;exitDy=0;exitPerimeter=0;entryX=0;entryY=0.5;entryDx=0;entryDy=0;" edge="1" parent="1" source="GZ-7p6NIEpDdpcSqMRWB-2" target="GZ-7p6NIEpDdpcSqMRWB-46">
          <mxGeometry width="50" height="50" relative="1" as="geometry">
            <mxPoint x="490" y="391" as="sourcePoint" />
            <mxPoint x="600" y="319" as="targetPoint" />
          </mxGeometry>
        </mxCell>
        <mxCell id="GZ-7p6NIEpDdpcSqMRWB-88" value="" style="endArrow=classic;html=1;rounded=0;exitX=1;exitY=0.3333333333333333;exitDx=0;exitDy=0;exitPerimeter=0;entryX=0;entryY=0.5;entryDx=0;entryDy=0;" edge="1" parent="1" source="GZ-7p6NIEpDdpcSqMRWB-2" target="GZ-7p6NIEpDdpcSqMRWB-49">
          <mxGeometry width="50" height="50" relative="1" as="geometry">
            <mxPoint x="480" y="381" as="sourcePoint" />
            <mxPoint x="590" y="309" as="targetPoint" />
          </mxGeometry>
        </mxCell>
        <mxCell id="GZ-7p6NIEpDdpcSqMRWB-89" value="" style="endArrow=classic;html=1;rounded=0;exitX=1;exitY=0.3333333333333333;exitDx=0;exitDy=0;exitPerimeter=0;entryX=0;entryY=0.5;entryDx=0;entryDy=0;" edge="1" parent="1" source="GZ-7p6NIEpDdpcSqMRWB-2" target="GZ-7p6NIEpDdpcSqMRWB-44">
          <mxGeometry width="50" height="50" relative="1" as="geometry">
            <mxPoint x="470" y="371" as="sourcePoint" />
            <mxPoint x="580" y="299" as="targetPoint" />
          </mxGeometry>
        </mxCell>
        <mxCell id="GZ-7p6NIEpDdpcSqMRWB-90" value="" style="endArrow=classic;html=1;rounded=0;exitX=1;exitY=0.3333333333333333;exitDx=0;exitDy=0;exitPerimeter=0;entryX=0;entryY=0.5;entryDx=0;entryDy=0;" edge="1" parent="1" source="GZ-7p6NIEpDdpcSqMRWB-2" target="GZ-7p6NIEpDdpcSqMRWB-51">
          <mxGeometry width="50" height="50" relative="1" as="geometry">
            <mxPoint x="460" y="361" as="sourcePoint" />
            <mxPoint x="570" y="289" as="targetPoint" />
          </mxGeometry>
        </mxCell>
        <mxCell id="GZ-7p6NIEpDdpcSqMRWB-91" value="" style="endArrow=classic;html=1;rounded=0;exitX=1;exitY=0.3333333333333333;exitDx=0;exitDy=0;exitPerimeter=0;entryX=0;entryY=0.5;entryDx=0;entryDy=0;" edge="1" parent="1" source="GZ-7p6NIEpDdpcSqMRWB-2" target="GZ-7p6NIEpDdpcSqMRWB-50">
          <mxGeometry width="50" height="50" relative="1" as="geometry">
            <mxPoint x="450" y="351" as="sourcePoint" />
            <mxPoint x="560" y="279" as="targetPoint" />
          </mxGeometry>
        </mxCell>
        <mxCell id="GZ-7p6NIEpDdpcSqMRWB-92" value="" style="endArrow=classic;html=1;rounded=0;exitX=1;exitY=0.3333333333333333;exitDx=0;exitDy=0;exitPerimeter=0;entryX=0;entryY=0.5;entryDx=0;entryDy=0;" edge="1" parent="1" source="GZ-7p6NIEpDdpcSqMRWB-2" target="GZ-7p6NIEpDdpcSqMRWB-48">
          <mxGeometry width="50" height="50" relative="1" as="geometry">
            <mxPoint x="440" y="341" as="sourcePoint" />
            <mxPoint x="490" y="600" as="targetPoint" />
          </mxGeometry>
        </mxCell>
        <mxCell id="GZ-7p6NIEpDdpcSqMRWB-101" value="" style="endArrow=classic;html=1;rounded=0;exitX=1;exitY=0.3333333333333333;exitDx=0;exitDy=0;exitPerimeter=0;entryX=0;entryY=0.5;entryDx=0;entryDy=0;" edge="1" parent="1" source="GZ-7p6NIEpDdpcSqMRWB-6" target="GZ-7p6NIEpDdpcSqMRWB-22">
          <mxGeometry width="50" height="50" relative="1" as="geometry">
            <mxPoint x="420" y="321" as="sourcePoint" />
            <mxPoint x="530" y="249" as="targetPoint" />
          </mxGeometry>
        </mxCell>
        <mxCell id="GZ-7p6NIEpDdpcSqMRWB-102" value="" style="endArrow=classic;html=1;rounded=0;exitX=1;exitY=0.3333333333333333;exitDx=0;exitDy=0;exitPerimeter=0;entryX=0;entryY=0.5;entryDx=0;entryDy=0;" edge="1" parent="1" source="GZ-7p6NIEpDdpcSqMRWB-6" target="GZ-7p6NIEpDdpcSqMRWB-21">
          <mxGeometry width="50" height="50" relative="1" as="geometry">
            <mxPoint x="430" y="331" as="sourcePoint" />
            <mxPoint x="540" y="259" as="targetPoint" />
          </mxGeometry>
        </mxCell>
        <mxCell id="GZ-7p6NIEpDdpcSqMRWB-103" value="" style="endArrow=classic;html=1;rounded=0;exitX=1;exitY=0.3333333333333333;exitDx=0;exitDy=0;exitPerimeter=0;entryX=0;entryY=0.5;entryDx=0;entryDy=0;" edge="1" parent="1" source="GZ-7p6NIEpDdpcSqMRWB-6" target="GZ-7p6NIEpDdpcSqMRWB-20">
          <mxGeometry width="50" height="50" relative="1" as="geometry">
            <mxPoint x="440" y="341" as="sourcePoint" />
            <mxPoint x="550" y="269" as="targetPoint" />
          </mxGeometry>
        </mxCell>
        <mxCell id="GZ-7p6NIEpDdpcSqMRWB-104" value="" style="endArrow=classic;html=1;rounded=0;exitX=1;exitY=0.3333333333333333;exitDx=0;exitDy=0;exitPerimeter=0;entryX=0;entryY=0.5;entryDx=0;entryDy=0;" edge="1" parent="1" source="GZ-7p6NIEpDdpcSqMRWB-6" target="GZ-7p6NIEpDdpcSqMRWB-19">
          <mxGeometry width="50" height="50" relative="1" as="geometry">
            <mxPoint x="450" y="351" as="sourcePoint" />
            <mxPoint x="560" y="279" as="targetPoint" />
          </mxGeometry>
        </mxCell>
        <mxCell id="GZ-7p6NIEpDdpcSqMRWB-107" value="" style="rounded=1;whiteSpace=wrap;html=1;" vertex="1" parent="1">
          <mxGeometry x="470" y="490" width="100" height="30" as="geometry" />
        </mxCell>
        <mxCell id="GZ-7p6NIEpDdpcSqMRWB-108" value="" style="rounded=1;whiteSpace=wrap;html=1;" vertex="1" parent="1">
          <mxGeometry x="470" y="300" width="100" height="30" as="geometry" />
        </mxCell>
        <mxCell id="GZ-7p6NIEpDdpcSqMRWB-109" value="" style="rounded=1;whiteSpace=wrap;html=1;" vertex="1" parent="1">
          <mxGeometry x="580" y="700" width="100" height="30" as="geometry" />
        </mxCell>
        <mxCell id="GZ-7p6NIEpDdpcSqMRWB-110" value="" style="rounded=1;whiteSpace=wrap;html=1;" vertex="1" parent="1">
          <mxGeometry x="580" y="900" width="100" height="30" as="geometry" />
        </mxCell>
        <mxCell id="GZ-7p6NIEpDdpcSqMRWB-112" value="" style="rounded=1;whiteSpace=wrap;html=1;" vertex="1" parent="1">
          <mxGeometry x="730" y="710" width="100" height="30" as="geometry" />
        </mxCell>
        <mxCell id="GZ-7p6NIEpDdpcSqMRWB-113" value="" style="rounded=1;whiteSpace=wrap;html=1;" vertex="1" parent="1">
          <mxGeometry x="860" y="450" width="100" height="30" as="geometry" />
        </mxCell>
        <mxCell id="GZ-7p6NIEpDdpcSqMRWB-114" value="" style="rounded=1;whiteSpace=wrap;html=1;" vertex="1" parent="1">
          <mxGeometry x="860" y="490" width="100" height="30" as="geometry" />
        </mxCell>
        <mxCell id="GZ-7p6NIEpDdpcSqMRWB-115" value="" style="rounded=1;whiteSpace=wrap;html=1;" vertex="1" parent="1">
          <mxGeometry x="860" y="580" width="100" height="30" as="geometry" />
        </mxCell>
        <mxCell id="GZ-7p6NIEpDdpcSqMRWB-116" value="" style="endArrow=none;html=1;rounded=0;" edge="1" parent="1">
          <mxGeometry width="50" height="50" relative="1" as="geometry">
            <mxPoint x="990" y="1104" as="sourcePoint" />
            <mxPoint x="990" y="-4" as="targetPoint" />
          </mxGeometry>
        </mxCell>
        <mxCell id="GZ-7p6NIEpDdpcSqMRWB-117" value="Actor" style="shape=umlActor;verticalLabelPosition=bottom;verticalAlign=top;html=1;outlineConnect=0;" vertex="1" parent="1">
          <mxGeometry x="1090" y="400" width="20" height="50" as="geometry" />
        </mxCell>
        <mxCell id="GZ-7p6NIEpDdpcSqMRWB-118" value="Actor" style="shape=umlActor;verticalLabelPosition=bottom;verticalAlign=top;html=1;outlineConnect=0;" vertex="1" parent="1">
          <mxGeometry x="1090" y="630" width="20" height="50" as="geometry" />
        </mxCell>
        <mxCell id="GZ-7p6NIEpDdpcSqMRWB-119" value="" style="endArrow=classic;html=1;rounded=0;exitX=0;exitY=0.3333333333333333;exitDx=0;exitDy=0;exitPerimeter=0;entryX=1;entryY=0.5;entryDx=0;entryDy=0;" edge="1" parent="1" source="GZ-7p6NIEpDdpcSqMRWB-117" target="GZ-7p6NIEpDdpcSqMRWB-113">
          <mxGeometry width="50" height="50" relative="1" as="geometry">
            <mxPoint x="920" y="690" as="sourcePoint" />
            <mxPoint x="970" y="640" as="targetPoint" />
          </mxGeometry>
        </mxCell>
        <mxCell id="GZ-7p6NIEpDdpcSqMRWB-121" value="" style="endArrow=classic;html=1;rounded=0;exitX=0;exitY=0.3333333333333333;exitDx=0;exitDy=0;exitPerimeter=0;entryX=1;entryY=0.5;entryDx=0;entryDy=0;" edge="1" parent="1" source="GZ-7p6NIEpDdpcSqMRWB-117" target="GZ-7p6NIEpDdpcSqMRWB-114">
          <mxGeometry width="50" height="50" relative="1" as="geometry">
            <mxPoint x="930" y="700" as="sourcePoint" />
            <mxPoint x="980" y="650" as="targetPoint" />
          </mxGeometry>
        </mxCell>
        <mxCell id="GZ-7p6NIEpDdpcSqMRWB-122" value="" style="endArrow=classic;html=1;rounded=0;exitX=0;exitY=0.3333333333333333;exitDx=0;exitDy=0;exitPerimeter=0;entryX=1;entryY=0.5;entryDx=0;entryDy=0;" edge="1" parent="1" source="GZ-7p6NIEpDdpcSqMRWB-118" target="GZ-7p6NIEpDdpcSqMRWB-115">
          <mxGeometry width="50" height="50" relative="1" as="geometry">
            <mxPoint x="940" y="710" as="sourcePoint" />
            <mxPoint x="990" y="660" as="targetPoint" />
          </mxGeometry>
        </mxCell>
        <mxCell id="GZ-7p6NIEpDdpcSqMRWB-123" value="" style="endArrow=classic;html=1;rounded=0;exitX=1;exitY=0.5;exitDx=0;exitDy=0;entryX=0;entryY=0.5;entryDx=0;entryDy=0;" edge="1" parent="1" source="GZ-7p6NIEpDdpcSqMRWB-14" target="GZ-7p6NIEpDdpcSqMRWB-106">
          <mxGeometry width="50" height="50" relative="1" as="geometry">
            <mxPoint x="340" y="330" as="sourcePoint" />
            <mxPoint x="390" y="280" as="targetPoint" />
          </mxGeometry>
        </mxCell>
        <mxCell id="GZ-7p6NIEpDdpcSqMRWB-125" value="" style="endArrow=classic;html=1;rounded=0;exitX=1;exitY=0.5;exitDx=0;exitDy=0;entryX=0;entryY=0.5;entryDx=0;entryDy=0;" edge="1" parent="1" source="GZ-7p6NIEpDdpcSqMRWB-15" target="GZ-7p6NIEpDdpcSqMRWB-106">
          <mxGeometry width="50" height="50" relative="1" as="geometry">
            <mxPoint x="350" y="340" as="sourcePoint" />
            <mxPoint x="400" y="290" as="targetPoint" />
          </mxGeometry>
        </mxCell>
        <mxCell id="GZ-7p6NIEpDdpcSqMRWB-126" value="" style="endArrow=classic;html=1;rounded=0;exitX=1;exitY=0.5;exitDx=0;exitDy=0;entryX=0;entryY=0.5;entryDx=0;entryDy=0;" edge="1" parent="1" source="GZ-7p6NIEpDdpcSqMRWB-16" target="GZ-7p6NIEpDdpcSqMRWB-106">
          <mxGeometry width="50" height="50" relative="1" as="geometry">
            <mxPoint x="360" y="350" as="sourcePoint" />
            <mxPoint x="410" y="300" as="targetPoint" />
          </mxGeometry>
        </mxCell>
        <mxCell id="GZ-7p6NIEpDdpcSqMRWB-127" value="" style="endArrow=classic;html=1;rounded=0;exitX=1;exitY=0.5;exitDx=0;exitDy=0;entryX=0;entryY=0.5;entryDx=0;entryDy=0;" edge="1" parent="1" source="GZ-7p6NIEpDdpcSqMRWB-17" target="GZ-7p6NIEpDdpcSqMRWB-106">
          <mxGeometry width="50" height="50" relative="1" as="geometry">
            <mxPoint x="370" y="360" as="sourcePoint" />
            <mxPoint x="420" y="310" as="targetPoint" />
          </mxGeometry>
        </mxCell>
        <mxCell id="GZ-7p6NIEpDdpcSqMRWB-128" value="" style="endArrow=classic;html=1;rounded=0;exitX=1;exitY=0.5;exitDx=0;exitDy=0;entryX=0;entryY=0.5;entryDx=0;entryDy=0;" edge="1" parent="1" source="GZ-7p6NIEpDdpcSqMRWB-22" target="GZ-7p6NIEpDdpcSqMRWB-108">
          <mxGeometry width="50" height="50" relative="1" as="geometry">
            <mxPoint x="380" y="370" as="sourcePoint" />
            <mxPoint x="430" y="320" as="targetPoint" />
          </mxGeometry>
        </mxCell>
        <mxCell id="GZ-7p6NIEpDdpcSqMRWB-129" value="" style="endArrow=classic;html=1;rounded=0;exitX=1;exitY=0.5;exitDx=0;exitDy=0;entryX=0;entryY=0.5;entryDx=0;entryDy=0;" edge="1" parent="1" source="GZ-7p6NIEpDdpcSqMRWB-21" target="GZ-7p6NIEpDdpcSqMRWB-108">
          <mxGeometry width="50" height="50" relative="1" as="geometry">
            <mxPoint x="390" y="380" as="sourcePoint" />
            <mxPoint x="440" y="330" as="targetPoint" />
          </mxGeometry>
        </mxCell>
        <mxCell id="GZ-7p6NIEpDdpcSqMRWB-130" value="" style="endArrow=classic;html=1;rounded=0;exitX=1;exitY=0.5;exitDx=0;exitDy=0;entryX=0;entryY=0.5;entryDx=0;entryDy=0;" edge="1" parent="1" source="GZ-7p6NIEpDdpcSqMRWB-20" target="GZ-7p6NIEpDdpcSqMRWB-108">
          <mxGeometry width="50" height="50" relative="1" as="geometry">
            <mxPoint x="400" y="390" as="sourcePoint" />
            <mxPoint x="450" y="340" as="targetPoint" />
          </mxGeometry>
        </mxCell>
        <mxCell id="GZ-7p6NIEpDdpcSqMRWB-131" value="" style="endArrow=classic;html=1;rounded=0;exitX=1;exitY=0.5;exitDx=0;exitDy=0;entryX=0;entryY=0.5;entryDx=0;entryDy=0;" edge="1" parent="1" source="GZ-7p6NIEpDdpcSqMRWB-19" target="GZ-7p6NIEpDdpcSqMRWB-108">
          <mxGeometry width="50" height="50" relative="1" as="geometry">
            <mxPoint x="410" y="400" as="sourcePoint" />
            <mxPoint x="460" y="350" as="targetPoint" />
          </mxGeometry>
        </mxCell>
        <mxCell id="GZ-7p6NIEpDdpcSqMRWB-132" value="" style="endArrow=classic;html=1;rounded=0;exitX=1;exitY=0.5;exitDx=0;exitDy=0;entryX=0;entryY=0.5;entryDx=0;entryDy=0;" edge="1" parent="1" source="GZ-7p6NIEpDdpcSqMRWB-27" target="GZ-7p6NIEpDdpcSqMRWB-107">
          <mxGeometry width="50" height="50" relative="1" as="geometry">
            <mxPoint x="420" y="410" as="sourcePoint" />
            <mxPoint x="470" y="360" as="targetPoint" />
          </mxGeometry>
        </mxCell>
        <mxCell id="GZ-7p6NIEpDdpcSqMRWB-133" value="" style="endArrow=classic;html=1;rounded=0;exitX=1;exitY=0.5;exitDx=0;exitDy=0;entryX=0;entryY=0.5;entryDx=0;entryDy=0;" edge="1" parent="1" source="GZ-7p6NIEpDdpcSqMRWB-24" target="GZ-7p6NIEpDdpcSqMRWB-107">
          <mxGeometry width="50" height="50" relative="1" as="geometry">
            <mxPoint x="430" y="420" as="sourcePoint" />
            <mxPoint x="480" y="370" as="targetPoint" />
          </mxGeometry>
        </mxCell>
        <mxCell id="GZ-7p6NIEpDdpcSqMRWB-134" value="" style="endArrow=classic;html=1;rounded=0;exitX=1;exitY=0.5;exitDx=0;exitDy=0;entryX=0;entryY=0.5;entryDx=0;entryDy=0;" edge="1" parent="1" source="GZ-7p6NIEpDdpcSqMRWB-26" target="GZ-7p6NIEpDdpcSqMRWB-107">
          <mxGeometry width="50" height="50" relative="1" as="geometry">
            <mxPoint x="440" y="430" as="sourcePoint" />
            <mxPoint x="490" y="380" as="targetPoint" />
          </mxGeometry>
        </mxCell>
        <mxCell id="GZ-7p6NIEpDdpcSqMRWB-135" value="" style="endArrow=classic;html=1;rounded=0;exitX=1;exitY=0.5;exitDx=0;exitDy=0;entryX=0;entryY=0.5;entryDx=0;entryDy=0;" edge="1" parent="1" source="GZ-7p6NIEpDdpcSqMRWB-25" target="GZ-7p6NIEpDdpcSqMRWB-107">
          <mxGeometry width="50" height="50" relative="1" as="geometry">
            <mxPoint x="450" y="440" as="sourcePoint" />
            <mxPoint x="500" y="390" as="targetPoint" />
          </mxGeometry>
        </mxCell>
        <mxCell id="GZ-7p6NIEpDdpcSqMRWB-136" value="" style="endArrow=classic;html=1;rounded=0;exitX=1;exitY=0.5;exitDx=0;exitDy=0;entryX=0;entryY=0.5;entryDx=0;entryDy=0;" edge="1" parent="1" source="GZ-7p6NIEpDdpcSqMRWB-47" target="GZ-7p6NIEpDdpcSqMRWB-109">
          <mxGeometry width="50" height="50" relative="1" as="geometry">
            <mxPoint x="460" y="450" as="sourcePoint" />
            <mxPoint x="510" y="400" as="targetPoint" />
          </mxGeometry>
        </mxCell>
        <mxCell id="GZ-7p6NIEpDdpcSqMRWB-137" value="" style="endArrow=classic;html=1;rounded=0;exitX=1;exitY=0.5;exitDx=0;exitDy=0;entryX=0;entryY=0.5;entryDx=0;entryDy=0;" edge="1" parent="1" source="GZ-7p6NIEpDdpcSqMRWB-46" target="GZ-7p6NIEpDdpcSqMRWB-109">
          <mxGeometry width="50" height="50" relative="1" as="geometry">
            <mxPoint x="470" y="460" as="sourcePoint" />
            <mxPoint x="520" y="410" as="targetPoint" />
          </mxGeometry>
        </mxCell>
        <mxCell id="GZ-7p6NIEpDdpcSqMRWB-138" value="" style="endArrow=classic;html=1;rounded=0;exitX=1;exitY=0.5;exitDx=0;exitDy=0;entryX=0;entryY=0.5;entryDx=0;entryDy=0;" edge="1" parent="1" source="GZ-7p6NIEpDdpcSqMRWB-49" target="GZ-7p6NIEpDdpcSqMRWB-109">
          <mxGeometry width="50" height="50" relative="1" as="geometry">
            <mxPoint x="480" y="470" as="sourcePoint" />
            <mxPoint x="530" y="420" as="targetPoint" />
          </mxGeometry>
        </mxCell>
        <mxCell id="GZ-7p6NIEpDdpcSqMRWB-139" value="" style="endArrow=classic;html=1;rounded=0;exitX=1;exitY=0.5;exitDx=0;exitDy=0;entryX=0;entryY=0.5;entryDx=0;entryDy=0;" edge="1" parent="1" source="GZ-7p6NIEpDdpcSqMRWB-44" target="GZ-7p6NIEpDdpcSqMRWB-109">
          <mxGeometry width="50" height="50" relative="1" as="geometry">
            <mxPoint x="490" y="480" as="sourcePoint" />
            <mxPoint x="540" y="430" as="targetPoint" />
          </mxGeometry>
        </mxCell>
        <mxCell id="GZ-7p6NIEpDdpcSqMRWB-140" value="" style="endArrow=classic;html=1;rounded=0;exitX=1;exitY=0.5;exitDx=0;exitDy=0;entryX=0;entryY=0.5;entryDx=0;entryDy=0;" edge="1" parent="1" source="GZ-7p6NIEpDdpcSqMRWB-51" target="GZ-7p6NIEpDdpcSqMRWB-110">
          <mxGeometry width="50" height="50" relative="1" as="geometry">
            <mxPoint x="470" y="1000" as="sourcePoint" />
            <mxPoint x="520" y="950" as="targetPoint" />
          </mxGeometry>
        </mxCell>
        <mxCell id="GZ-7p6NIEpDdpcSqMRWB-141" value="" style="endArrow=classic;html=1;rounded=0;exitX=1;exitY=0.5;exitDx=0;exitDy=0;entryX=0;entryY=0.5;entryDx=0;entryDy=0;" edge="1" parent="1" source="GZ-7p6NIEpDdpcSqMRWB-50" target="GZ-7p6NIEpDdpcSqMRWB-110">
          <mxGeometry width="50" height="50" relative="1" as="geometry">
            <mxPoint x="480" y="1010" as="sourcePoint" />
            <mxPoint x="530" y="960" as="targetPoint" />
          </mxGeometry>
        </mxCell>
        <mxCell id="GZ-7p6NIEpDdpcSqMRWB-142" value="" style="endArrow=classic;html=1;rounded=0;exitX=1;exitY=0.5;exitDx=0;exitDy=0;entryX=0;entryY=0.5;entryDx=0;entryDy=0;" edge="1" parent="1" source="GZ-7p6NIEpDdpcSqMRWB-45" target="GZ-7p6NIEpDdpcSqMRWB-110">
          <mxGeometry width="50" height="50" relative="1" as="geometry">
            <mxPoint x="490" y="1020" as="sourcePoint" />
            <mxPoint x="540" y="970" as="targetPoint" />
          </mxGeometry>
        </mxCell>
        <mxCell id="GZ-7p6NIEpDdpcSqMRWB-143" value="" style="endArrow=classic;html=1;rounded=0;exitX=1;exitY=0.5;exitDx=0;exitDy=0;entryX=0;entryY=0.5;entryDx=0;entryDy=0;" edge="1" parent="1" source="GZ-7p6NIEpDdpcSqMRWB-48" target="GZ-7p6NIEpDdpcSqMRWB-110">
          <mxGeometry width="50" height="50" relative="1" as="geometry">
            <mxPoint x="500" y="1030" as="sourcePoint" />
            <mxPoint x="550" y="980" as="targetPoint" />
          </mxGeometry>
        </mxCell>
        <mxCell id="GZ-7p6NIEpDdpcSqMRWB-144" value="" style="endArrow=none;dashed=1;html=1;rounded=0;exitX=1;exitY=0.5;exitDx=0;exitDy=0;" edge="1" parent="1" source="GZ-7p6NIEpDdpcSqMRWB-107" target="GZ-7p6NIEpDdpcSqMRWB-112">
          <mxGeometry width="50" height="50" relative="1" as="geometry">
            <mxPoint x="670" y="840" as="sourcePoint" />
            <mxPoint x="720" y="790" as="targetPoint" />
          </mxGeometry>
        </mxCell>
        <mxCell id="GZ-7p6NIEpDdpcSqMRWB-145" value="" style="endArrow=none;dashed=1;html=1;rounded=0;exitX=0.084;exitY=0.995;exitDx=0;exitDy=0;exitPerimeter=0;" edge="1" parent="1" source="GZ-7p6NIEpDdpcSqMRWB-111" target="GZ-7p6NIEpDdpcSqMRWB-112">
          <mxGeometry width="50" height="50" relative="1" as="geometry">
            <mxPoint x="680" y="850" as="sourcePoint" />
            <mxPoint x="730" y="800" as="targetPoint" />
          </mxGeometry>
        </mxCell>
        <mxCell id="GZ-7p6NIEpDdpcSqMRWB-146" value="" style="endArrow=none;dashed=1;html=1;rounded=0;exitX=1;exitY=0.5;exitDx=0;exitDy=0;" edge="1" parent="1" source="GZ-7p6NIEpDdpcSqMRWB-106" target="GZ-7p6NIEpDdpcSqMRWB-112">
          <mxGeometry width="50" height="50" relative="1" as="geometry">
            <mxPoint x="640" y="165" as="sourcePoint" />
            <mxPoint x="690" y="115" as="targetPoint" />
          </mxGeometry>
        </mxCell>
        <mxCell id="GZ-7p6NIEpDdpcSqMRWB-147" value="" style="endArrow=none;dashed=1;html=1;rounded=0;exitX=1;exitY=0.5;exitDx=0;exitDy=0;" edge="1" parent="1" source="GZ-7p6NIEpDdpcSqMRWB-108" target="GZ-7p6NIEpDdpcSqMRWB-112">
          <mxGeometry width="50" height="50" relative="1" as="geometry">
            <mxPoint x="650" y="175" as="sourcePoint" />
            <mxPoint x="700" y="125" as="targetPoint" />
          </mxGeometry>
        </mxCell>
        <mxCell id="GZ-7p6NIEpDdpcSqMRWB-148" value="" style="endArrow=none;dashed=1;html=1;rounded=0;exitX=1;exitY=0.5;exitDx=0;exitDy=0;" edge="1" parent="1" source="GZ-7p6NIEpDdpcSqMRWB-109" target="GZ-7p6NIEpDdpcSqMRWB-112">
          <mxGeometry width="50" height="50" relative="1" as="geometry">
            <mxPoint x="710" y="880" as="sourcePoint" />
            <mxPoint x="760" y="830" as="targetPoint" />
          </mxGeometry>
        </mxCell>
        <mxCell id="GZ-7p6NIEpDdpcSqMRWB-149" value="" style="endArrow=none;dashed=1;html=1;rounded=0;exitX=1;exitY=0.5;exitDx=0;exitDy=0;" edge="1" parent="1" source="GZ-7p6NIEpDdpcSqMRWB-110" target="GZ-7p6NIEpDdpcSqMRWB-112">
          <mxGeometry width="50" height="50" relative="1" as="geometry">
            <mxPoint x="720" y="890" as="sourcePoint" />
            <mxPoint x="770" y="840" as="targetPoint" />
          </mxGeometry>
        </mxCell>
        <mxCell id="GZ-7p6NIEpDdpcSqMRWB-111" value="" style="rounded=1;whiteSpace=wrap;html=1;shadow=0;" vertex="1" parent="1">
          <mxGeometry x="640" y="490" width="100" height="30" as="geometry" />
        </mxCell>
        <mxCell id="GZ-7p6NIEpDdpcSqMRWB-150" value="" style="endArrow=none;dashed=1;html=1;rounded=0;exitX=1;exitY=0.5;exitDx=0;exitDy=0;entryX=0;entryY=0.5;entryDx=0;entryDy=0;" edge="1" parent="1" source="GZ-7p6NIEpDdpcSqMRWB-111" target="GZ-7p6NIEpDdpcSqMRWB-113">
          <mxGeometry width="50" height="50" relative="1" as="geometry">
            <mxPoint x="810" y="630" as="sourcePoint" />
            <mxPoint x="860" y="580" as="targetPoint" />
          </mxGeometry>
        </mxCell>
        <mxCell id="GZ-7p6NIEpDdpcSqMRWB-151" value="" style="endArrow=none;dashed=1;html=1;rounded=0;exitX=1;exitY=0.5;exitDx=0;exitDy=0;entryX=0;entryY=0.5;entryDx=0;entryDy=0;" edge="1" parent="1" source="GZ-7p6NIEpDdpcSqMRWB-111" target="GZ-7p6NIEpDdpcSqMRWB-114">
          <mxGeometry width="50" height="50" relative="1" as="geometry">
            <mxPoint x="820" y="640" as="sourcePoint" />
            <mxPoint x="870" y="590" as="targetPoint" />
          </mxGeometry>
        </mxCell>
      </root>
    </mxGraphModel>
  </diagram>
</mxfile>
